<svg width="24.000000" height="24.000000" viewBox="0 0 24 24" fill="none" xmlns="http://www.w3.org/2000/svg" xmlns:xlink="http://www.w3.org/1999/xlink">
    <path id="Union" d="M5 4L19 4C19.7957 4 20.5586 4.31604 21.1213 4.87866C21.6838 5.44128 22 6.20435 22 7L22 17C22 17.7957 21.6838 18.5587 21.1213 19.1213C20.5586 19.684 19.7957 20 19 20L5 20C4.20435 20 3.44141 19.684 2.87866 19.1213C2.31616 18.5587 2 17.7957 2 17L2 7C2 6.20435 2.31616 5.44128 2.87866 4.87866C3.44141 4.31604 4.20435 4 5 4ZM18.1201 11.89L20 13.76L20 7C20 6.73474 19.8945 6.48047 19.707 6.29285C19.5195 6.10535 19.2651 6 19 6L5 6C4.73486 6 4.48047 6.10535 4.29297 6.29285C4.10547 6.48047 4 6.73474 4 7L4 11.76L5.87988 9.89001C6.44995 9.34241 7.20972 9.03662 8 9.03662C8.79028 9.03662 9.55005 9.34241 10.1201 9.89001L13 12.77L13.8799 11.89C14.45 11.3424 15.2097 11.0366 16 11.0366C16.7903 11.0366 17.55 11.3424 18.1201 11.89ZM4.29297 17.7072C4.48047 17.8947 4.73486 18 5 18L15.4099 18L8.69995 11.29C8.51318 11.1068 8.26172 11.0042 8 11.0042C7.73828 11.0042 7.48682 11.1068 7.30005 11.29L4 14.58L4 17C4 17.2653 4.10547 17.5195 4.29297 17.7072ZM19.707 17.7072C19.8945 17.5195 20 17.2653 20 17L20 16.58L16.7 13.29C16.5132 13.1068 16.2617 13.0042 16 13.0042C15.7383 13.0042 15.4868 13.1068 15.3 13.29L14.4199 14.17L18.23 18L19 18C19.2651 18 19.5195 17.8947 19.707 17.7072Z" clip-rule="evenodd" fill="currentColor" fill-opacity="1.000000" fill-rule="evenodd"/>
</svg>
