<svg width="24.000000" height="24.000000" viewBox="0 0 24 24" fill="none" xmlns="http://www.w3.org/2000/svg" xmlns:xlink="http://www.w3.org/1999/xlink">
    <path id="Union" d="M6.44431 3.6853C8.08881 2.58649 10.0222 2 12 2C13.3132 2 14.6136 2.25867 15.8268 2.7612C17.0401 3.26376 18.1425 4.00034 19.0711 4.92892C19.9997 5.85751 20.7363 6.9599 21.2388 8.17316C21.7413 9.38641 22 10.6868 22 12C22 13.9778 21.4135 15.9112 20.3147 17.5557C19.2159 19.2002 17.6541 20.4819 15.8268 21.2388C13.9996 21.9957 11.9889 22.1937 10.0491 21.8079C8.10928 21.422 6.32745 20.4696 4.92892 19.0711C3.53043 17.6725 2.578 15.8907 2.19214 13.9509C1.8063 12.0111 2.00433 10.0004 2.7612 8.17316C3.5181 6.34592 4.7998 4.78412 6.44431 3.6853ZM7.55545 18.6518C8.87103 19.5308 10.4178 20 12 20C14.1217 20 16.1566 19.1571 17.6569 17.6569C19.1572 16.1566 20 14.1217 20 12C20 10.4178 19.5308 8.87103 18.6518 7.55545C17.7727 6.23984 16.5233 5.21448 15.0615 4.60898C13.5997 4.00345 11.9911 3.84503 10.4393 4.15372C8.88742 4.4624 7.46198 5.22433 6.34314 6.34314C5.22433 7.46198 4.4624 8.88742 4.15372 10.4393C3.84503 11.9911 4.00348 13.5997 4.60898 15.0615C5.21448 16.5233 6.23984 17.7727 7.55545 18.6518ZM10.43 13.09L14.72 8.79001C14.9074 8.60376 15.1608 8.49921 15.425 8.49921C15.6892 8.49921 15.9426 8.60376 16.13 8.79001C16.2237 8.88297 16.2981 8.99356 16.3489 9.11542C16.3997 9.23727 16.4258 9.36798 16.4258 9.5C16.4258 9.63202 16.3997 9.76273 16.3489 9.88458C16.2981 10.0064 16.2237 10.117 16.13 10.21L11.13 15.21C10.9438 15.3947 10.6924 15.4989 10.43 15.5C10.2984 15.5008 10.1679 15.4755 10.0461 15.4258C9.92426 15.376 9.81345 15.3027 9.72 15.21L7.37 12.85C7.26532 12.7603 7.1803 12.65 7.12027 12.526C7.06024 12.4019 7.02652 12.2668 7.02121 12.1291C7.0159 11.9913 7.03909 11.854 7.08936 11.7257C7.13965 11.5974 7.21591 11.4808 7.31335 11.3834C7.4108 11.2859 7.52734 11.2096 7.65567 11.1594C7.784 11.1091 7.92133 11.0859 8.05905 11.0912C8.19678 11.0965 8.33191 11.1302 8.45596 11.1903C8.58005 11.2503 8.69037 11.3353 8.78 11.44L10.43 13.09Z" clip-rule="evenodd" fill="currentColor" fill-opacity="1.000000" fill-rule="evenodd"/>
</svg>
