<svg width="24.000000" height="24.000000" viewBox="0 0 24 24" fill="none" xmlns="http://www.w3.org/2000/svg" xmlns:xlink="http://www.w3.org/1999/xlink">
    <path id="Vector" d="M14.5713 1.71436C15.6914 1.71436 16.6436 2.42993 16.9961 3.42871L8.68066 3.42859C7.15234 3.42859 6.59863 3.58777 6.04004 3.8866C5.48047 4.18542 5.04199 4.6239 4.74316 5.18262C4.44434 5.74133 4.28516 6.29553 4.28516 7.82385L4.28613 16.9966C3.28711 16.6437 2.57129 15.6912 2.57129 14.5715L2.57129 6.85718C2.57129 4.01685 4.87402 1.71436 7.71387 1.71436L14.5713 1.71436ZM18 5.14294C19.4199 5.14294 20.5713 6.29419 20.5713 7.71436L20.5713 18.8572C20.5713 20.2775 19.4199 21.4286 18 21.4286L8.57129 21.4286C7.15137 21.4286 6 20.2775 6 18.8572L6 7.71436C6 6.29419 7.15137 5.14294 8.57129 5.14294L18 5.14294ZM18 6.85718L8.57129 6.85718C8.09766 6.85718 7.71387 7.24097 7.71387 7.71436L7.71387 18.8572C7.71387 19.3306 8.09766 19.7144 8.57129 19.7144L18 19.7144C18.4736 19.7144 18.8574 19.3306 18.8574 18.8572L18.8574 7.71436C18.8574 7.24097 18.4736 6.85718 18 6.85718Z" fill-rule="nonzero" fill="currentColor"/>
</svg>
