<svg width="24.000000" height="24.000000" viewBox="0 0 24 24" fill="none" xmlns="http://www.w3.org/2000/svg" xmlns:xlink="http://www.w3.org/1999/xlink">
    <path id="Union" d="M15.824 2.689C17.044 3.2131 18.1475 3.97491 19.0699 4.93002C20.0251 5.85248 20.7869 6.95593 21.311 8.17596C21.8351 9.39603 22.1109 10.7082 22.1225 12.036C22.134 13.3638 21.881 14.6806 21.3782 15.9095C20.8754 17.1385 20.1328 18.255 19.1939 19.194C18.255 20.1329 17.1385 20.8754 15.9095 21.3782C14.6805 21.881 13.3637 22.1341 12.0359 22.1225C10.7082 22.111 9.39597 21.8351 8.1759 21.311C6.95587 20.787 5.85242 20.0251 4.92996 19.07C3.97485 18.1476 3.21304 17.0441 2.68893 15.8241C2.16486 14.604 1.88898 13.2918 1.87744 11.964C1.86591 10.6362 2.11893 9.31943 2.62173 8.09048C3.12454 6.86151 3.86707 5.745 4.806 4.80606C5.74493 3.86713 6.86145 3.1246 8.09042 2.6218C9.31937 2.11899 10.6362 1.86597 11.964 1.8775C13.2917 1.88904 14.604 2.16492 15.824 2.689ZM12.7888 19.9673C14.6305 19.7849 16.352 18.9694 17.6599 17.66C18.4048 16.9182 18.9952 16.0359 19.3969 15.0644C19.7986 14.0929 20.0035 13.0513 20 12C19.9985 10.1493 19.3554 8.35626 18.1802 6.92648C17.005 5.4967 15.3704 4.51865 13.555 4.15891C11.7395 3.79913 9.85547 4.07999 8.22385 4.95358C6.59222 5.82718 5.31396 7.23944 4.60687 8.9498C3.89975 10.6602 3.80756 12.5628 4.34592 14.3335C4.88431 16.1042 6.01999 17.6335 7.55948 18.6608C9.09897 19.6881 10.947 20.1498 12.7888 19.9673ZM15.3845 8.07114C15.5064 8.12189 15.617 8.19629 15.71 8.29001C15.8037 8.383 15.8781 8.49359 15.9288 8.61545C15.9796 8.7373 16.0058 8.86801 16.0058 9.00003C16.0058 9.13202 15.9796 9.26273 15.9288 9.38458C15.8781 9.50644 15.8037 9.61707 15.71 9.71002L13.4099 12L15.71 14.29C15.8037 14.383 15.8781 14.4936 15.9288 14.6154C15.9796 14.7373 16.0058 14.868 16.0058 15C16.0058 15.132 15.9796 15.2627 15.9288 15.3846C15.8781 15.5065 15.8037 15.6171 15.71 15.71C15.617 15.8037 15.5064 15.8781 15.3845 15.9289C15.2627 15.9797 15.132 16.0058 15 16.0058C14.868 16.0058 14.7372 15.9797 14.6154 15.9289C14.4935 15.8781 14.3829 15.8037 14.2899 15.71L12 13.41L9.70996 15.71C9.617 15.8037 9.50638 15.8781 9.38452 15.9289C9.26266 15.9797 9.13196 16.0058 8.99997 16.0058C8.86795 16.0058 8.73724 15.9797 8.61539 15.9289C8.49353 15.8781 8.38293 15.8037 8.28995 15.71C8.19623 15.6171 8.12183 15.5065 8.07108 15.3846C8.02029 15.2627 7.99417 15.132 7.99417 15C7.99417 14.868 8.02029 14.7373 8.07108 14.6154C8.12183 14.4936 8.19623 14.383 8.28995 14.29L10.59 12L8.28995 9.71002C8.10165 9.52173 7.99588 9.26633 7.99588 9.00003C7.99588 8.7337 8.10165 8.47833 8.28995 8.29001C8.47827 8.10172 8.73364 7.99594 8.99997 7.99594C9.26627 7.99594 9.52167 8.10172 9.70996 8.29001L12 10.59L14.2899 8.29001C14.3829 8.19629 14.4935 8.12189 14.6154 8.07114C14.7372 8.02036 14.868 7.99423 15 7.99423C15.132 7.99423 15.2627 8.02036 15.3845 8.07114Z" clip-rule="evenodd" fill="currentColor" fill-opacity="1.000000" fill-rule="evenodd"/>
</svg>
